<?xml version="1.0" encoding="UTF-8" standalone="no"?>
<!-- Created with Inkscape (http://www.inkscape.org/) -->

<svg
   xmlns:dc="http://purl.org/dc/elements/1.1/"
   xmlns:cc="http://creativecommons.org/ns#"
   xmlns:rdf="http://www.w3.org/1999/02/22-rdf-syntax-ns#"
   xmlns:svg="http://www.w3.org/2000/svg"
   xmlns="http://www.w3.org/2000/svg"
   xmlns:sodipodi="http://sodipodi.sourceforge.net/DTD/sodipodi-0.dtd"
   xmlns:inkscape="http://www.inkscape.org/namespaces/inkscape"
   width="112.24287mm"
   height="105.50906mm"
   viewBox="0 0 397.71094 373.85101"
   id="svg2"
   version="1.1"
   inkscape:version="0.91 r13725"
   sodipodi:docname="drawing.svg">
  <defs
     id="defs4" />
  <sodipodi:namedview
     id="base"
     pagecolor="#ffffff"
     bordercolor="#666666"
     borderopacity="1.0"
     inkscape:pageopacity="0.0"
     inkscape:pageshadow="2"
     inkscape:zoom="0.35"
     inkscape:cx="-429.19884"
     inkscape:cy="395.88807"
     inkscape:document-units="px"
     inkscape:current-layer="layer2"
     showgrid="false"
     showguides="true"
     inkscape:guide-bbox="true"
     fit-margin-top="0"
     fit-margin-left="0"
     fit-margin-right="0"
     fit-margin-bottom="0"
     inkscape:window-width="1278"
     inkscape:window-height="1004"
     inkscape:window-x="0"
     inkscape:window-y="18"
     inkscape:window-maximized="1" />
  <metadata
     id="metadata7">
    <rdf:RDF>
      <cc:Work
         rdf:about="">
        <dc:format>image/svg+xml</dc:format>
        <dc:type
           rdf:resource="http://purl.org/dc/dcmitype/StillImage" />
        <dc:title />
      </cc:Work>
    </rdf:RDF>
  </metadata>
  <g
     inkscape:groupmode="layer"
     id="layer2"
     inkscape:label="Capa 2"
     style="opacity:1"
     transform="translate(753.71147,-409.27503)">
    <g
       id="g4300"
       transform="matrix(1.1461434,0.00446558,-0.00446558,1.1461434,112.70724,-57.220347)">
      <path
         sodipodi:nodetypes="ssssssssssssss"
         inkscape:connector-curvature="0"
         id="path4152"
         d="m -628.28737,434.58213 c 86.30225,-29.58525 164.91036,40.6934 180.45583,101.69722 15.54548,61.00381 -9.10752,132.21567 -81.95076,163.97686 -72.84324,31.76119 -170.22066,-37.05252 -182.90787,-66.17815 -6.14035,-14.0962 -17.71501,-32.80315 -14.1667,-49.66076 2.32854,-11.06269 18.28376,-16.95133 8.07379,-40.86707 -12.11052,-28.36763 -41.09543,9.09464 -33.79806,27.61437 4.15005,10.53225 10.99843,13.40174 13.06158,16.70414 5.35355,8.56924 0,0 16.11282,50.72143 21.16479,66.62451 126.34048,118.53066 203.2818,87.71253 76.94133,-30.81814 133.0968,-107.51472 106.86419,-202.8413 -26.23261,-95.32658 -143.3561,-137.72626 -219.59192,-101.19215 -76.23581,36.53411 -94.28057,102.81935 -94.67264,103.514 -0.83647,1.48203 18.3854,-63.48408 99.23794,-91.20112 z"
         style="fill:#000000;fill-rule:evenodd;stroke:none;stroke-width:1px;stroke-linecap:butt;stroke-linejoin:miter;stroke-opacity:1" />
      <path
         inkscape:connector-curvature="0"
         id="path4165"
         d="m -579.4324,452.93613 a 115.66248,115.66248 0 0 0 -117.52054,113.77533 115.66248,115.66248 0 0 0 113.77337,117.52047 115.66248,115.66248 0 0 0 115.32823,-93.72227 c -9.19662,44.15148 -54.13626,77.0221 -98.99024,74.07419 -47.14412,-1.24136 -87.65995,-43.74064 -90.2784,-90.25156 -4.43906,-52.66904 43.51957,-102.66633 96.1989,-101.20693 11.87243,-0.0197 23.71112,2.41089 34.70794,6.85607 32.58869,11.73241 55.35638,43.26651 59.85263,77.10464 A 115.66248,115.66248 0 0 0 -579.4324,452.93613 Z m 113.59304,109.11802 c 0.008,0.10372 0.0184,0.20728 0.0263,0.31102 a 115.66248,115.66248 0 0 0 -0.0263,-0.31102 z m -0.55387,19.47796 c -0.11274,0.80694 -0.22367,1.61375 -0.35954,2.41833 a 115.66248,115.66248 0 0 0 0.35954,-2.41833 z"
         style="opacity:1;fill:#000000;fill-opacity:1;stroke:none;stroke-width:1;stroke-linecap:round;stroke-miterlimit:4;stroke-dasharray:none;stroke-opacity:1" />
      <path
         id="path4230"
         d="m -727.0918,585.69922 c -4.09576,0.42759 -7.96905,1.65471 -11.71875,3.32812 1.26712,2.05204 1.84564,3.13069 2.38477,4.93164 2.87385,-1.68878 5.82996,-2.78086 8.9082,-2.99804 0.002,-1.76709 0.13886,-3.52315 0.42578,-5.26172 z"
         style="fill:#ffffff;fill-rule:evenodd;stroke:none;stroke-width:1px;stroke-linecap:butt;stroke-linejoin:miter;stroke-opacity:1"
         inkscape:connector-curvature="0" />
      <path
         id="path4235"
         d="m -734.73438,534.05859 c -0.75804,0.27646 -1.51192,0.62884 -2.26171,1.03907 -2.08779,15.46554 -4.69939,30.66821 -11.10938,43.97265 0.25615,0.32693 0.51453,0.63337 0.77149,0.93555 8.94984,-10.02415 17.74007,-10.84406 26.23437,-6.32227 0.42926,-0.63133 0.844,-1.26878 1.26172,-1.92773 -7.95706,-11.0698 -11.79877,-24.1978 -14.89649,-37.69727 z"
         style="fill:#ffffff;fill-rule:evenodd;stroke:none;stroke-width:1px;stroke-linecap:butt;stroke-linejoin:miter;stroke-opacity:1"
         inkscape:connector-curvature="0" />
      <path
         id="path4240"
         d="m -523.67188,697.43945 c -1.99922,0.96883 -4.03389,1.91061 -6.11132,2.81641 -2.95172,1.28701 -5.94569,2.39332 -8.97071,3.35937 12.30926,1.91779 24.4111,6.53083 36.23633,14.64454 5.02091,-2.58946 9.91664,-5.38984 14.67774,-8.38086 -11.94402,-5.97514 -23.88802,-9.99813 -35.83204,-12.43946 z m -88,4.90625 c -13.45164,3.39323 -26.90382,7.60787 -40.35546,12.0918 7.51604,3.9065 15.3574,7.35038 23.41796,10.25586 14.31491,-7.06871 28.56737,-13.14396 42.66797,-17.13086 -8.65288,-0.99364 -17.27709,-2.79291 -25.73047,-5.2168 z"
         style="fill:#ffffff;fill-rule:evenodd;stroke:none;stroke-width:1px;stroke-linecap:butt;stroke-linejoin:miter;stroke-opacity:1"
         inkscape:connector-curvature="0" />
      <path
         id="path4245"
         d="m -557.79883,707.69531 c -4.06024,0.47195 -8.15074,0.7056 -12.25586,0.73828 2.03247,9.19025 2.00861,18.12373 1.2793,26.96875 3.3137,-0.0178 6.61762,-0.14624 9.90625,-0.38476 -0.41713,-9.49409 -0.2325,-18.68814 1.07031,-27.32227 z"
         style="fill:#ffffff;fill-rule:evenodd;stroke:none;stroke-width:1px;stroke-linecap:butt;stroke-linejoin:miter;stroke-opacity:1"
         inkscape:connector-curvature="0" />
      <path
         id="path4250"
         d="m -467.0332,649.45508 c -3.36576,4.9362 -7.1002,9.70491 -11.20899,14.26953 13.06634,1.2633 22.07507,6.65462 28.9336,14.17578 4.79482,-5.23794 9.26692,-10.75168 13.36718,-16.5293 -9.07761,-6.31826 -19.1466,-10.82687 -31.09179,-11.91601 z"
         style="fill:#ffffff;fill-rule:evenodd;stroke:none;stroke-width:1px;stroke-linecap:butt;stroke-linejoin:miter;stroke-opacity:1"
         inkscape:connector-curvature="0" />
      <path
         id="path4252"
         d="m -444.41602,588.92773 c -1.39572,11.48441 -4.21505,22.84307 -8.49609,33.77539 11.08606,-4.42354 21.51034,-12.59854 36.11523,2.91797 1.91168,-5.03326 3.57679,-10.19088 4.9668,-15.4707 -11.80722,-4.55343 -22.02027,-13.35841 -32.58594,-21.22266 z"
         style="fill:#ffffff;fill-rule:evenodd;stroke:none;stroke-width:1px;stroke-linecap:butt;stroke-linejoin:miter;stroke-opacity:1"
         inkscape:connector-curvature="0" />
      <path
         id="path4254"
         d="m -447.62891,462.61133 c -5.66952,12.68218 -12.13738,25.50776 -16.01562,37.84961 7.37928,11.75602 12.79111,23.96176 15.8125,35.81836 1.64418,6.45211 2.83494,13.01888 3.57031,19.64062 9.07801,5.45577 21.31745,10.32421 37.53516,14.45703 0.001,-4.15795 -0.15954,-8.36648 -0.48438,-12.625 -35.48357,-16.20923 -52.497,-41.34706 -31.57226,-84.82031 -2.80087,-3.57909 -5.75114,-7.02238 -8.84571,-10.32031 z"
         style="fill:#ffffff;fill-rule:evenodd;stroke:none;stroke-width:1px;stroke-linecap:butt;stroke-linejoin:miter;stroke-opacity:1"
         inkscape:connector-curvature="0" />
      <path
         id="path4256"
         d="m -497.89844,426.3125 c -10.16418,5.7437 -16.79194,12.91699 -18.36718,22.13281 7.1744,4.4008 13.95113,9.35923 20.26171,14.74024 -0.84881,-11.80324 5.87467,-20.08081 17.8125,-25.93164 -6.33005,-4.07687 -12.92382,-7.72601 -19.70703,-10.94141 z"
         style="fill:#ffffff;fill-rule:evenodd;stroke:none;stroke-width:1px;stroke-linecap:butt;stroke-linejoin:miter;stroke-opacity:1"
         inkscape:connector-curvature="0" />
      <path
         id="path4258"
         d="m -570.36328,409.26172 c -1.23105,6.49667 -0.61547,13.05085 1.25781,19.64453 4.98176,0.72189 9.88031,1.73402 14.68555,3.00977 -3.84209,-7.64466 -3.68928,-14.84603 -1.76172,-21.84961 -4.73685,-0.46844 -9.47078,-0.74364 -14.18164,-0.80469 z"
         style="fill:#ffffff;fill-rule:evenodd;stroke:none;stroke-width:1px;stroke-linecap:butt;stroke-linejoin:miter;stroke-opacity:1"
         inkscape:connector-curvature="0" />
      <path
         id="path4260"
         d="m -685.94141,663.64258 c -5.79004,4.03328 -8.26246,11.06014 -9.27343,19.40625 1.3178,1.33317 2.66314,2.65064 4.04492,3.94726 2.31747,-8.44876 5.98261,-15.04461 12.36914,-17.89843 -2.49388,-1.81452 -4.86137,-3.63483 -7.14063,-5.45508 z"
         style="fill:#ffffff;fill-rule:evenodd;stroke:none;stroke-width:1px;stroke-linecap:butt;stroke-linejoin:miter;stroke-opacity:1"
         inkscape:connector-curvature="0" />
      <path
         id="path4262"
         d="m -715.86914,627.19922 c -2.7972,3.2168 -5.46404,6.51321 -8.00977,9.88476 0.16681,0.52694 0.30102,0.96556 0.47266,1.50586 1.41759,4.46243 3.22369,8.85609 5.36133,13.16602 1.89425,-5.4543 4.05107,-10.66906 6.24609,-15.84766 -0.327,-0.62372 -0.6327,-1.23797 -0.89062,-1.83008 -0.9499,-2.18065 -2.04579,-4.50147 -3.17969,-6.8789 z"
         style="fill:#ffffff;fill-rule:evenodd;stroke:none;stroke-width:1px;stroke-linecap:butt;stroke-linejoin:miter;stroke-opacity:1"
         inkscape:connector-curvature="0" />
      <path
         id="path4264"
         d="m -424.88086,494.26367 a 21.428572,21.428572 0 0 0 -7.97656,16.66992 21.428572,21.428572 0 0 0 21.42969,21.42774 21.428572,21.428572 0 0 0 0.38671,-0.0137 c -0.66094,-2.94298 -1.40058,-5.9065 -2.2207,-8.88672 -2.8538,-10.37043 -6.78363,-20.11309 -11.61914,-29.19727 z"
         style="opacity:1;fill:#ffffff;fill-opacity:1;stroke:none;stroke-width:1;stroke-linecap:round;stroke-miterlimit:4;stroke-dasharray:none;stroke-opacity:1"
         inkscape:connector-curvature="0" />
      <path
         id="path4266"
         d="m -645.45703,428.87109 c -1.94548,1.10728 -3.84585,2.23392 -5.70508,3.37696 -0.32121,4.14486 -0.33628,8.11547 0.10742,11.83007 2.40735,-1.19792 4.88372,-2.36224 7.4336,-3.49023 -1.4524,-3.25233 -1.91432,-7.27386 -1.83594,-11.7168 z"
         style="fill:#ffffff;fill-rule:evenodd;stroke:none;stroke-width:1px;stroke-linecap:butt;stroke-linejoin:miter;stroke-opacity:1"
         inkscape:connector-curvature="0" />
      <path
         id="path4268"
         d="m -610.31055,414.02148 c -1.67542,0.44292 -3.33532,0.92584 -4.98633,1.43164 -0.93091,5.47398 -1.61172,10.80661 -1.73828,15.82813 2.08352,-0.51342 4.15975,-0.96703 6.23047,-1.36914 -0.6485,-4.66463 -0.24644,-10.1456 0.49414,-15.89063 z"
         style="fill:#ffffff;fill-rule:evenodd;stroke:none;stroke-width:1px;stroke-linecap:butt;stroke-linejoin:miter;stroke-opacity:1"
         inkscape:connector-curvature="0" />
    </g>
  </g>
</svg>
